<?xml version="1.0" encoding="utf-8"?>
<!-- Generator: Adobe Illustrator 19.2.1, SVG Export Plug-In . SVG Version: 6.00 Build 0)  -->
<svg version="1.1" id="Layer_1" xmlns="http://www.w3.org/2000/svg" xmlns:xlink="http://www.w3.org/1999/xlink" x="0px" y="0px"
	 viewBox="0 0 155.5 48.6" style="enable-background:new 0 0 155.5 48.6;" xml:space="preserve">
<style type="text/css">
	.st0{fill:#5C8BC8;}
	.st1{fill:#F5A128;}
	.st2{fill:#F4B161;}
	.st3{fill:#5BACE0;}
	.st4{fill:#F49D24;}
	.st5{fill:#888888;}
	.st6{fill:#20294F;}
	.st7{fill:#7FC6EF;}
	.st8{fill:#6AA5D9;}
	.st9{fill:#F6A723;}
	.st10{fill:#FFFFFF;}
	.st11{fill:#545454;}
	.st12{fill:none;}
	.st13{fill:#243980;}
	.st14{fill:#FFFFFF;stroke:#1D1D1B;stroke-width:0.8738;stroke-miterlimit:10;}
	.st15{fill:#DCD5C9;}
	.st16{fill:#020202;}
	.st17{fill:#CB4217;}
	.st18{fill:#4EBCEC;}
	.st19{fill:#070542;}
	.st20{fill:url(#SVGID_1_);}
	.st21{clip-path:url(#SVGID_4_);fill:url(#SVGID_5_);}
	.st22{clip-path:url(#SVGID_4_);fill:url(#SVGID_6_);}
	.st23{clip-path:url(#SVGID_4_);fill:url(#SVGID_7_);}
	.st24{clip-path:url(#SVGID_4_);fill:url(#SVGID_8_);}
	.st25{clip-path:url(#SVGID_4_);fill:url(#SVGID_9_);}
	.st26{clip-path:url(#SVGID_4_);fill:url(#SVGID_10_);}
	.st27{clip-path:url(#SVGID_4_);fill:url(#SVGID_11_);}
	.st28{clip-path:url(#SVGID_4_);fill:url(#SVGID_12_);}
	.st29{clip-path:url(#SVGID_4_);fill:url(#SVGID_13_);}
	.st30{clip-path:url(#SVGID_4_);fill:url(#SVGID_14_);}
	.st31{clip-path:url(#SVGID_4_);fill:url(#SVGID_15_);}
	.st32{clip-path:url(#SVGID_4_);fill:url(#SVGID_16_);}
	.st33{clip-path:url(#SVGID_4_);fill:url(#SVGID_17_);}
	.st34{clip-path:url(#SVGID_4_);fill:url(#SVGID_18_);}
	.st35{clip-path:url(#SVGID_4_);fill:url(#SVGID_19_);}
	.st36{clip-path:url(#SVGID_4_);fill:url(#SVGID_20_);}
	.st37{clip-path:url(#SVGID_4_);fill:url(#SVGID_21_);}
	.st38{clip-path:url(#SVGID_4_);fill:url(#SVGID_22_);}
	.st39{clip-path:url(#SVGID_4_);fill:url(#SVGID_23_);}
	.st40{clip-path:url(#SVGID_4_);fill:url(#SVGID_24_);}
	.st41{clip-path:url(#SVGID_4_);fill:url(#SVGID_25_);}
	.st42{clip-path:url(#SVGID_4_);fill:url(#SVGID_26_);}
	.st43{clip-path:url(#SVGID_4_);fill:url(#SVGID_27_);}
	.st44{clip-path:url(#SVGID_4_);fill:url(#SVGID_28_);}
	.st45{clip-path:url(#SVGID_4_);fill:url(#SVGID_29_);}
	.st46{clip-path:url(#SVGID_4_);fill:url(#SVGID_30_);}
	.st47{clip-path:url(#SVGID_4_);fill:url(#SVGID_31_);}
	.st48{clip-path:url(#SVGID_4_);fill:url(#SVGID_32_);}
	.st49{clip-path:url(#SVGID_4_);fill:url(#SVGID_33_);}
	.st50{clip-path:url(#SVGID_4_);fill:url(#SVGID_34_);}
	.st51{clip-path:url(#SVGID_4_);fill:url(#SVGID_35_);}
	.st52{clip-path:url(#SVGID_4_);fill:url(#SVGID_36_);}
	.st53{clip-path:url(#SVGID_4_);fill:url(#SVGID_37_);}
	.st54{clip-path:url(#SVGID_4_);fill:url(#SVGID_38_);}
	.st55{clip-path:url(#SVGID_4_);fill:url(#SVGID_39_);}
	.st56{clip-path:url(#SVGID_4_);fill:url(#SVGID_40_);}
	.st57{clip-path:url(#SVGID_4_);fill:url(#SVGID_41_);}
	.st58{clip-path:url(#SVGID_4_);fill:url(#SVGID_42_);}
	.st59{clip-path:url(#SVGID_4_);fill:url(#SVGID_43_);}
	.st60{clip-path:url(#SVGID_4_);fill:url(#SVGID_44_);}
	.st61{clip-path:url(#SVGID_4_);fill:url(#SVGID_45_);}
	.st62{clip-path:url(#SVGID_4_);fill:url(#SVGID_46_);}
	.st63{clip-path:url(#SVGID_4_);fill:url(#SVGID_47_);}
	.st64{clip-path:url(#SVGID_4_);fill:url(#SVGID_48_);}
	.st65{clip-path:url(#SVGID_4_);fill:url(#SVGID_49_);}
	.st66{clip-path:url(#SVGID_4_);fill:url(#SVGID_50_);}
	.st67{clip-path:url(#SVGID_4_);fill:url(#SVGID_51_);}
	.st68{clip-path:url(#SVGID_4_);fill:url(#SVGID_52_);}
	.st69{clip-path:url(#SVGID_4_);fill:url(#SVGID_53_);}
	.st70{clip-path:url(#SVGID_4_);fill:url(#SVGID_54_);}
	.st71{clip-path:url(#SVGID_4_);fill:url(#SVGID_55_);}
	.st72{clip-path:url(#SVGID_4_);fill:url(#SVGID_56_);}
	.st73{clip-path:url(#SVGID_4_);fill:url(#SVGID_57_);}
	.st74{clip-path:url(#SVGID_4_);fill:url(#SVGID_58_);}
	.st75{clip-path:url(#SVGID_4_);fill:url(#SVGID_59_);}
	.st76{clip-path:url(#SVGID_4_);fill:url(#SVGID_60_);}
	.st77{clip-path:url(#SVGID_4_);fill:url(#SVGID_61_);}
	.st78{clip-path:url(#SVGID_4_);fill:url(#SVGID_62_);}
	.st79{clip-path:url(#SVGID_4_);fill:url(#SVGID_63_);}
	.st80{clip-path:url(#SVGID_4_);fill:url(#SVGID_64_);}
	.st81{clip-path:url(#SVGID_4_);fill:url(#SVGID_65_);}
	.st82{clip-path:url(#SVGID_4_);fill:url(#SVGID_66_);}
	.st83{clip-path:url(#SVGID_4_);fill:url(#SVGID_67_);}
	.st84{clip-path:url(#SVGID_4_);fill:url(#SVGID_68_);}
	.st85{clip-path:url(#SVGID_4_);fill:url(#SVGID_69_);}
	.st86{fill:#283548;}
	.st87{clip-path:url(#SVGID_71_);fill:#283548;}
	.st88{fill:#26495D;}
	.st89{clip-path:url(#SVGID_73_);fill:#26495D;}
	.st90{fill:#925F4C;}
	.st91{clip-path:url(#SVGID_75_);fill:#925F4C;}
	.st92{fill:url(#SVGID_76_);}
	.st93{clip-path:url(#SVGID_78_);fill:#DCD5C9;}
	.st94{fill:url(#SVGID_79_);}
	.st95{fill:#937851;}
	.st96{clip-path:url(#SVGID_81_);fill:#937851;}
	.st97{fill:url(#SVGID_82_);}
	.st98{fill:url(#SVGID_83_);}
	.st99{clip-path:url(#SVGID_86_);fill:url(#SVGID_87_);}
	.st100{clip-path:url(#SVGID_86_);fill:url(#SVGID_88_);}
	.st101{clip-path:url(#SVGID_86_);fill:url(#SVGID_89_);}
	.st102{clip-path:url(#SVGID_86_);fill:url(#SVGID_90_);}
	.st103{clip-path:url(#SVGID_86_);fill:url(#SVGID_91_);}
	.st104{clip-path:url(#SVGID_86_);fill:url(#SVGID_92_);}
	.st105{clip-path:url(#SVGID_86_);fill:url(#SVGID_93_);}
	.st106{clip-path:url(#SVGID_86_);fill:url(#SVGID_94_);}
	.st107{clip-path:url(#SVGID_86_);fill:url(#SVGID_95_);}
	.st108{clip-path:url(#SVGID_86_);fill:url(#SVGID_96_);}
	.st109{clip-path:url(#SVGID_86_);fill:url(#SVGID_97_);}
	.st110{clip-path:url(#SVGID_86_);fill:url(#SVGID_98_);}
	.st111{clip-path:url(#SVGID_86_);fill:url(#SVGID_99_);}
	.st112{clip-path:url(#SVGID_86_);fill:url(#SVGID_100_);}
	.st113{clip-path:url(#SVGID_86_);fill:url(#SVGID_101_);}
	.st114{clip-path:url(#SVGID_86_);fill:url(#SVGID_102_);}
	.st115{clip-path:url(#SVGID_86_);fill:url(#SVGID_103_);}
	.st116{clip-path:url(#SVGID_86_);fill:url(#SVGID_104_);}
	.st117{clip-path:url(#SVGID_86_);fill:url(#SVGID_105_);}
	.st118{clip-path:url(#SVGID_86_);fill:url(#SVGID_106_);}
	.st119{clip-path:url(#SVGID_86_);fill:url(#SVGID_107_);}
	.st120{clip-path:url(#SVGID_86_);fill:url(#SVGID_108_);}
	.st121{clip-path:url(#SVGID_86_);fill:url(#SVGID_109_);}
	.st122{clip-path:url(#SVGID_86_);fill:url(#SVGID_110_);}
	.st123{clip-path:url(#SVGID_86_);fill:url(#SVGID_111_);}
	.st124{clip-path:url(#SVGID_86_);fill:url(#SVGID_112_);}
	.st125{clip-path:url(#SVGID_86_);fill:url(#SVGID_113_);}
	.st126{clip-path:url(#SVGID_86_);fill:url(#SVGID_114_);}
	.st127{clip-path:url(#SVGID_86_);fill:url(#SVGID_115_);}
	.st128{clip-path:url(#SVGID_86_);fill:url(#SVGID_116_);}
	.st129{clip-path:url(#SVGID_86_);fill:url(#SVGID_117_);}
	.st130{clip-path:url(#SVGID_86_);fill:url(#SVGID_118_);}
	.st131{clip-path:url(#SVGID_86_);fill:url(#SVGID_119_);}
	.st132{clip-path:url(#SVGID_86_);fill:url(#SVGID_120_);}
	.st133{clip-path:url(#SVGID_86_);fill:url(#SVGID_121_);}
	.st134{clip-path:url(#SVGID_86_);fill:url(#SVGID_122_);}
	.st135{clip-path:url(#SVGID_86_);fill:url(#SVGID_123_);}
	.st136{clip-path:url(#SVGID_86_);fill:url(#SVGID_124_);}
	.st137{clip-path:url(#SVGID_86_);fill:url(#SVGID_125_);}
	.st138{clip-path:url(#SVGID_86_);fill:url(#SVGID_126_);}
	.st139{clip-path:url(#SVGID_86_);fill:url(#SVGID_127_);}
	.st140{clip-path:url(#SVGID_86_);fill:url(#SVGID_128_);}
	.st141{clip-path:url(#SVGID_86_);fill:url(#SVGID_129_);}
	.st142{clip-path:url(#SVGID_86_);fill:url(#SVGID_130_);}
	.st143{clip-path:url(#SVGID_86_);fill:url(#SVGID_131_);}
	.st144{clip-path:url(#SVGID_86_);fill:url(#SVGID_132_);}
	.st145{clip-path:url(#SVGID_86_);fill:url(#SVGID_133_);}
	.st146{clip-path:url(#SVGID_86_);fill:url(#SVGID_134_);}
	.st147{clip-path:url(#SVGID_86_);fill:url(#SVGID_135_);}
	.st148{clip-path:url(#SVGID_86_);fill:url(#SVGID_136_);}
	.st149{clip-path:url(#SVGID_86_);fill:url(#SVGID_137_);}
	.st150{clip-path:url(#SVGID_86_);fill:url(#SVGID_138_);}
	.st151{clip-path:url(#SVGID_86_);fill:url(#SVGID_139_);}
	.st152{clip-path:url(#SVGID_86_);fill:url(#SVGID_140_);}
	.st153{clip-path:url(#SVGID_86_);fill:url(#SVGID_141_);}
	.st154{clip-path:url(#SVGID_86_);fill:url(#SVGID_142_);}
	.st155{clip-path:url(#SVGID_86_);fill:url(#SVGID_143_);}
	.st156{clip-path:url(#SVGID_86_);fill:url(#SVGID_144_);}
	.st157{clip-path:url(#SVGID_86_);fill:url(#SVGID_145_);}
	.st158{clip-path:url(#SVGID_86_);fill:url(#SVGID_146_);}
	.st159{clip-path:url(#SVGID_86_);fill:url(#SVGID_147_);}
	.st160{clip-path:url(#SVGID_86_);fill:url(#SVGID_148_);}
	.st161{clip-path:url(#SVGID_86_);fill:url(#SVGID_149_);}
	.st162{clip-path:url(#SVGID_86_);fill:url(#SVGID_150_);}
	.st163{clip-path:url(#SVGID_86_);fill:url(#SVGID_151_);}
	.st164{fill:url(#SVGID_152_);}
	.st165{fill:url(#SVGID_153_);}
	.st166{fill:#F5A775;}
	.st167{fill:#ED763F;}
	.st168{fill:#FAFAF9;}
	.st169{fill:#DBA841;}
	.st170{fill:#BC8B3C;}
</style>
<linearGradient id="SVGID_1_" gradientUnits="userSpaceOnUse" x1="77.7352" y1="-75.5959" x2="77.7352" y2="50.9155">
	<stop  offset="0" style="stop-color:#26495D"/>
	<stop  offset="0.8581" style="stop-color:#283548"/>
</linearGradient>
<path class="st20" d="M2.8,0c0,0-0.2,0.8,0.3,1.4s1.6,1.7,0.2,2.5s-4,2.7-3,2.8c1,0.1,7.4,1.9,7.3,2.5C7.4,9.8,5,11.1,5.1,11.8
	s5,2.5,5.4,3c0.3,0.5-3,2.2-3,3.1c0,1,0.3,3.1,1.2,3.3c0.9,0.2,1.9,0.4,2.7,1.2c0.8,0.8,7.9,2.8,9.5,2.9s6.3,0.6,5.5,1.1
	s-8,2.9-8.4,2.8s-0.5,1.4-0.3,2c0.3,0.6,1.7,1,3.3,1c1.6,0.1,5.5,0.3,6.9,1.1c1.5,0.9,2.7,2.8,1.4,3.8c-1.3,1,0.5,1.1,1.9,1.2
	c1.4,0.1,7.4,1.2,7.1,2.1c-0.3,0.9-1.2,2.4,0.2,2.8s13,1.5,15.4,1.7c2.4,0.3,6.6,1,9.2,2.2c2.6,1.1,6,1.1,8.5,0.6s7.3-0.9,9.5,0.1
	c2.3,1,10.1,0.9,14.2-0.2c4.1-1,4.9-1.8,6.2-1.6c1.4,0.2,1.6-2.3,3.6-2.2c2.1,0.1,5,1.9,6.7,1.9c1.6,0,4.3-1.2,5.3-1.8
	c1-0.6,2.3-0.5,3.6-0.6s2.3-0.5,2.1-1.9s-0.8-1.5,1-2.2c1.8-0.7,5.2-1.3,6.1-2.2s1.3-1.5,2.3-2.2c1-0.7,6.8-2.3,8.4-2.4
	c1.6-0.2,1.6-0.9,0.7-1.4c-0.9-0.5-3.1-2.2-2.6-2.9s0.9-1.8,1.6-2.2c0.8-0.3,8.2-0.9,9.9-1.5c1.6-0.6,3.3-1.2,3.1-1.6
	c-0.2-0.3-4.9-1.5-5.6-1.6s-2.3-1.1-2.1-1.6s2.9-1.6,3-2.4c0.2-0.8-0.5-2.3,0.2-2.8c0.7-0.5,3.8-2.1,3.5-2.6
	c-0.3-0.5-2.4-2.6-2.9-2.7s-0.1-0.3,0.3-1.1c0.4-0.9,2.5-2.8,3.9-3.4c1.4-0.6,2.4-1.4,0.8-2.2c-1.6-0.8-3.4-1.3-3.5-1.9
	c-0.1-0.6,0.8-0.9,0.8-0.9H2.8z"/>
</svg>
