<?xml version="1.0" encoding="utf-8"?>
<!-- Generator: Adobe Illustrator 23.0.3, SVG Export Plug-In . SVG Version: 6.00 Build 0)  -->
<svg version="1.1" id="Layer_1" xmlns="http://www.w3.org/2000/svg" xmlns:xlink="http://www.w3.org/1999/xlink" x="0px" y="0px"
	 viewBox="0 0 48.69 48.69" style="enable-background:new 0 0 48.69 48.69;" xml:space="preserve">
<style type="text/css">
	.st0{fill:url(#SVGID_1_);}
	.st1{fill:#DCD5C9;}
	.st2{fill:url(#SVGID_2_);}
	.st3{clip-path:url(#SVGID_5_);fill:url(#SVGID_6_);}
	.st4{clip-path:url(#SVGID_5_);fill:url(#SVGID_7_);}
	.st5{clip-path:url(#SVGID_5_);fill:url(#SVGID_8_);}
	.st6{clip-path:url(#SVGID_5_);fill:url(#SVGID_9_);}
	.st7{clip-path:url(#SVGID_5_);fill:url(#SVGID_10_);}
	.st8{clip-path:url(#SVGID_5_);fill:url(#SVGID_11_);}
	.st9{clip-path:url(#SVGID_5_);fill:url(#SVGID_12_);}
	.st10{clip-path:url(#SVGID_5_);fill:url(#SVGID_13_);}
	.st11{clip-path:url(#SVGID_5_);fill:url(#SVGID_14_);}
	.st12{clip-path:url(#SVGID_5_);fill:url(#SVGID_15_);}
	.st13{clip-path:url(#SVGID_5_);fill:url(#SVGID_16_);}
	.st14{clip-path:url(#SVGID_5_);fill:url(#SVGID_17_);}
	.st15{clip-path:url(#SVGID_5_);fill:url(#SVGID_18_);}
	.st16{clip-path:url(#SVGID_5_);fill:url(#SVGID_19_);}
	.st17{clip-path:url(#SVGID_5_);fill:url(#SVGID_20_);}
	.st18{clip-path:url(#SVGID_5_);fill:url(#SVGID_21_);}
	.st19{clip-path:url(#SVGID_5_);fill:url(#SVGID_22_);}
	.st20{clip-path:url(#SVGID_5_);fill:url(#SVGID_23_);}
	.st21{clip-path:url(#SVGID_5_);fill:url(#SVGID_24_);}
	.st22{clip-path:url(#SVGID_5_);fill:url(#SVGID_25_);}
	.st23{clip-path:url(#SVGID_5_);fill:url(#SVGID_26_);}
	.st24{clip-path:url(#SVGID_5_);fill:url(#SVGID_27_);}
	.st25{clip-path:url(#SVGID_5_);fill:url(#SVGID_28_);}
	.st26{clip-path:url(#SVGID_5_);fill:url(#SVGID_29_);}
	.st27{clip-path:url(#SVGID_5_);fill:url(#SVGID_30_);}
	.st28{clip-path:url(#SVGID_5_);fill:url(#SVGID_31_);}
	.st29{clip-path:url(#SVGID_5_);fill:url(#SVGID_32_);}
	.st30{clip-path:url(#SVGID_5_);fill:url(#SVGID_33_);}
	.st31{clip-path:url(#SVGID_5_);fill:url(#SVGID_34_);}
	.st32{clip-path:url(#SVGID_5_);fill:url(#SVGID_35_);}
	.st33{clip-path:url(#SVGID_5_);fill:url(#SVGID_36_);}
	.st34{clip-path:url(#SVGID_5_);fill:url(#SVGID_37_);}
	.st35{clip-path:url(#SVGID_5_);fill:url(#SVGID_38_);}
	.st36{clip-path:url(#SVGID_5_);fill:url(#SVGID_39_);}
	.st37{clip-path:url(#SVGID_5_);fill:url(#SVGID_40_);}
	.st38{clip-path:url(#SVGID_5_);fill:url(#SVGID_41_);}
	.st39{clip-path:url(#SVGID_5_);fill:url(#SVGID_42_);}
	.st40{clip-path:url(#SVGID_5_);fill:url(#SVGID_43_);}
	.st41{clip-path:url(#SVGID_5_);fill:url(#SVGID_44_);}
	.st42{clip-path:url(#SVGID_5_);fill:url(#SVGID_45_);}
	.st43{clip-path:url(#SVGID_5_);fill:url(#SVGID_46_);}
	.st44{clip-path:url(#SVGID_5_);fill:url(#SVGID_47_);}
	.st45{clip-path:url(#SVGID_5_);fill:url(#SVGID_48_);}
	.st46{clip-path:url(#SVGID_5_);fill:url(#SVGID_49_);}
	.st47{clip-path:url(#SVGID_5_);fill:url(#SVGID_50_);}
	.st48{clip-path:url(#SVGID_5_);fill:url(#SVGID_51_);}
	.st49{clip-path:url(#SVGID_5_);fill:url(#SVGID_52_);}
	.st50{clip-path:url(#SVGID_5_);fill:url(#SVGID_53_);}
	.st51{clip-path:url(#SVGID_5_);fill:url(#SVGID_54_);}
	.st52{clip-path:url(#SVGID_5_);fill:url(#SVGID_55_);}
	.st53{clip-path:url(#SVGID_5_);fill:url(#SVGID_56_);}
	.st54{clip-path:url(#SVGID_5_);fill:url(#SVGID_57_);}
	.st55{clip-path:url(#SVGID_5_);fill:url(#SVGID_58_);}
	.st56{clip-path:url(#SVGID_5_);fill:url(#SVGID_59_);}
	.st57{clip-path:url(#SVGID_5_);fill:url(#SVGID_60_);}
	.st58{clip-path:url(#SVGID_5_);fill:url(#SVGID_61_);}
	.st59{clip-path:url(#SVGID_5_);fill:url(#SVGID_62_);}
	.st60{clip-path:url(#SVGID_5_);fill:url(#SVGID_63_);}
	.st61{clip-path:url(#SVGID_5_);fill:url(#SVGID_64_);}
	.st62{clip-path:url(#SVGID_5_);fill:url(#SVGID_65_);}
	.st63{clip-path:url(#SVGID_5_);fill:url(#SVGID_66_);}
	.st64{clip-path:url(#SVGID_5_);fill:url(#SVGID_67_);}
	.st65{clip-path:url(#SVGID_5_);fill:url(#SVGID_68_);}
	.st66{clip-path:url(#SVGID_5_);fill:url(#SVGID_69_);}
	.st67{clip-path:url(#SVGID_5_);fill:url(#SVGID_70_);}
	.st68{fill:url(#SVGID_71_);}
	.st69{fill:url(#SVGID_72_);}
	.st70{fill:url(#SVGID_73_);}
	.st71{fill:#283548;}
	.st72{fill:#26495D;}
	.st73{fill:#937851;}
	.st74{fill:#FAFAF9;stroke:#A5A5A5;stroke-miterlimit:10;}
	.st75{fill:#DBA841;}
	.st76{fill:#BC8B3C;}
	.st77{fill:#925F4C;}
	.st78{fill:url(#SVGID_74_);}
</style>
<g>
	<linearGradient id="SVGID_1_" gradientUnits="userSpaceOnUse" x1="13.2872" y1="38.5296" x2="13.2872" y2="8.9798">
		<stop  offset="0" style="stop-color:#26495D"/>
		<stop  offset="0.8581" style="stop-color:#283548"/>
	</linearGradient>
	<path class="st0" d="M15.71,24.44c-2.45,0-5.3,0.95-6.9,2.5v-5.8c0-4.45,0-10.15,0.05-10.55c0.05-0.6-0.05-0.85-0.4-0.85
		c-0.3,0-0.7,0.2-1.05,0.45c-1.25,0.8-3.85,2.1-5.3,2.75c-0.3,0.15-0.4,0.25-0.4,0.4v0.4c0,0.15,0.1,0.25,0.65,0.4l0.5,0.15
		c1.8,0.6,2.35,1.3,2.35,4.65v18.45c0,0.51,0,1.04,0,1.56H8.9c-0.06-0.98-0.09-2.19-0.09-3.81v-6.5c1.1-1.15,2.9-1.8,4.75-1.8
		c4.9,0,7.45,4.6,7.45,9.45c0,0.99-0.09,1.87-0.25,2.66h3.42c0.43-1.22,0.67-2.5,0.67-3.81C24.86,27.99,20.11,24.44,15.71,24.44z"/>
	<linearGradient id="SVGID_2_" gradientUnits="userSpaceOnUse" x1="36.9218" y1="38.5296" x2="36.9218" y2="8.9798">
		<stop  offset="0" style="stop-color:#26495D"/>
		<stop  offset="0.8581" style="stop-color:#283548"/>
	</linearGradient>
	<path class="st2" d="M46.76,26.74c0-6.35,0.05-13.6,0.2-16.1c0.05-0.55,0-0.9-0.25-0.9c-0.35,0-0.7,0.1-1.15,0.15
		c-0.95,0.2-3.55,0.65-5.5,1.05c-0.3,0.05-0.4,0.15-0.4,0.35v0.85c0,0.2,0.05,0.3,0.35,0.35c2.8,0.45,3.15,1.05,3.15,2.95v9.75
		c-1.5-0.45-3.3-0.75-5.35-0.75c-2.8,0-5.5,1.05-7.45,3.15c-2.35,2.35-3.5,5.4-3.5,8.5c0,1.05,0.07,1.98,0.23,2.86h4.35
		c-0.51-1.29-0.83-2.76-0.83-4.36c0-1.9,0.35-4.55,2.3-6.65c1.3-1.35,3-1.8,4.55-1.8c2.95,0,4.55,1.35,5.25,2.7
		c0.45,0.8,0.45,1.75,0.45,2.45v7.66h3.62c-0.01-0.39-0.02-0.78-0.02-1.16V26.74z"/>
</g>
</svg>
