<?xml version="1.0" encoding="utf-8"?>
<!-- Generator: Adobe Illustrator 19.2.1, SVG Export Plug-In . SVG Version: 6.00 Build 0)  -->
<svg version="1.1" id="Layer_1" xmlns="http://www.w3.org/2000/svg" xmlns:xlink="http://www.w3.org/1999/xlink" x="0px" y="0px"
	 viewBox="0 0 188.6 29.2" style="enable-background:new 0 0 188.6 29.2;" xml:space="preserve">
<style type="text/css">
	.st0{fill:#DDD6CA;}
</style>
<g>
	<path class="st0" d="M14,14.7c-2.5,0-5.3,0.9-6.9,2.5v-5.8c0-4.5,0-10.2,0-10.6c0-0.6,0-0.9-0.4-0.9C6.5,0,6,0.2,5.7,0.5
		C4.5,1.3,1.8,2.6,0.4,3.2C0.1,3.4,0,3.5,0,3.6V4c0,0.1,0.1,0.3,0.6,0.4l0.5,0.1C3,5.2,3.5,5.9,3.5,9.2v18.5c0,0.5,0,1,0,1.6h3.7
		c-0.1-1-0.1-2.2-0.1-3.8v-6.5c1.1-1.1,2.9-1.8,4.8-1.8c4.9,0,7.5,4.6,7.5,9.5c0,1-0.1,1.9-0.2,2.7h3.4c0.4-1.2,0.7-2.5,0.7-3.8
		C23.2,18.3,18.4,14.7,14,14.7z"/>
	<path class="st0" d="M33.5,16.8c0-2.8,0.1-13.2,0.2-15.9c0-0.7-0.1-0.9-0.4-0.9c-0.3,0-0.6,0.1-1,0.4c-1.9,1.2-4.1,2.1-5.9,2.9
		c-0.3,0.1-0.5,0.2-0.5,0.4v0.4c0,0.1,0,0.1,0.3,0.3l1,0.4c1.6,0.5,2.4,1.3,2.5,3c0.1,1.3,0.1,5.9,0.1,9.4v3.1c0,1.8,0,5.9,0,9h3.6
		c0-2.8,0-6.3,0-8V16.8z"/>
	<path class="st0" d="M45.3,25.1v-3.6c0-3,0.1-5.3,0.2-5.8c0.1-0.4-0.2-0.6-0.5-0.6c-0.1,0-0.3,0-0.5,0c-0.2,0.1-0.4,0.1-0.7,0.1
		h-4.5c-0.5,0-0.5,0.1-0.5,0.4v0.9c0,0.3,0.3,0.3,1.1,0.4c1.2,0.1,1.9,0.5,1.9,1.9v5.9c0,1.9,0,3.4,0.1,4.6h3.5
		C45.1,27.7,45.3,26.2,45.3,25.1z"/>
	<path class="st0" d="M58.8,22.3c0-4.9,0.3-6.2,0.3-6.7c0-0.3-0.2-0.5-0.5-0.5c-0.2,0-0.3,0-0.6,0c-0.3,0.1-0.5,0.1-0.9,0.1h-4.7
		c-0.5,0-0.6,0.1-0.6,0.5v0.9c0,0.3,0.3,0.4,1.1,0.4c1.3,0.1,2.1,0.3,2.2,1.8v10.6h3.6c0-1,0-2.1,0-3.2V22.3z"/>
	<path class="st0" d="M68.9,22.9h12.4c0.8,0,1.4-0.1,1.4-0.8c0-1.9-1.6-7.4-7.4-7.4c-2.5,0-5,0.4-7.2,2.6c-2.6,2.7-3.1,6-3.1,8
		c0,1.6,0.1,2.8,0.4,3.9h4.2c-0.5-1.2-0.8-2.5-0.8-4C68.8,24.1,68.8,23.3,68.9,22.9z M74.4,16.2c3.3,0,3.9,3.3,3.9,4.5
		c0,0.5-0.4,0.7-1.3,0.7h-7.8C70.1,17.7,72.2,16.2,74.4,16.2z"/>
	<path class="st0" d="M106.3,17c0-6.4,0.1-13.6,0.2-16.1c0-0.6,0-0.9-0.3-0.9c-0.3,0-0.7,0.1-1.2,0.1c-0.9,0.2-3.5,0.7-5.5,1.1
		c-0.3,0-0.4,0.1-0.4,0.4v0.9c0,0.2,0,0.3,0.3,0.4c2.8,0.4,3.2,1,3.2,3v9.8c-1.5-0.5-3.3-0.8-5.4-0.8c-2.8,0-5.5,1-7.5,3.1
		c-2.4,2.4-3.5,5.4-3.5,8.5c0,1.1,0.1,2,0.2,2.9h4.4c-0.5-1.3-0.8-2.8-0.8-4.4c0-1.9,0.3-4.6,2.3-6.7c1.3-1.4,3-1.8,4.6-1.8
		c3,0,4.5,1.4,5.3,2.7c0.5,0.8,0.5,1.8,0.5,2.5v7.7h3.6c0-0.4,0-0.8,0-1.2V17z"/>
	<path class="st0" d="M126.3,16.1c-0.7-0.7-1.7-1.4-4-1.4c-2.3,0-4,0.5-6.1,1.8c-2.1,1.2-3.5,3.1-3.5,4.7c0,1.1,0.4,1.6,1.2,1.6
		c2,0,2.6-1.1,2.6-2.9c0-0.9-0.4-1.6,0.3-2.3c0.7-0.6,2.3-1,3.3-1c1.4,0,2.5,0.4,3,1.1c0.5,0.6,0.6,2,0.7,2.8v3.2
		c-0.8,0.7-3.4,1.9-5.7,2.9c-1.9,0.8-3.1,1.7-3.9,2.7h3.5c1.4-2.2,4.6-3,6-4.1v4.1h3.7v-9.6C127.3,18.3,127.3,17.1,126.3,16.1z"/>
	<path class="st0" d="M152.6,18.5c-0.2-0.8,0.2-1.3,0.7-1.3h1c0.3,0,0.4-0.1,0.4-0.4v-1.1c0-0.3-0.1-0.4-0.5-0.4
		c-0.4,0-1.5,0.2-3.8,0.2c-2.5,0-4.1-0.2-4.5-0.2c-0.3,0-0.5,0.1-0.5,0.4v1c0,0.3,0.1,0.4,0.4,0.4h0.8c0.7,0,1.1,0.1,1.3,0.5
		c0.3,0.4,0.4,0.8,0.5,1.6l-4.1,9.9h1.8l3.2-7.6h0.3l2.6,7.6h3.8L152.6,18.5z"/>
	<path class="st0" d="M139.2,18.3c-0.3-0.9,0-1.4,0.6-1.4h0.5c0.3,0,0.4-0.2,0.4-0.4v-1c0-0.3-0.1-0.4-0.4-0.4c-0.8,0-2,0.1-4.2,0.1
		c-2.9,0-3.9-0.1-4.6-0.1c-0.3,0-0.3,0.1-0.3,0.4v1c0,0.3,0,0.5,0.4,0.5h1.1c1.2,0,1.8,0.4,2.1,1.4l4.1,11h3.6L139.2,18.3z"/>
	<path class="st0" d="M165.6,16.9h1.3c0.3,0,0.3-0.2,0.3-0.4v-1c0-0.2-0.1-0.4-0.3-0.4c-0.6,0-1.5,0.1-3.7,0.1c-2,0-3.5-0.1-3.9-0.1
		c-0.2,0-0.3,0.1-0.3,0.4v1c0,0.3,0,0.4,0.3,0.4h0.7c1,0,1.4,1,0.8,2.8l-3.5,9.6h2c2-5,4.4-10.9,4.8-11.5
		C164.3,17.3,165,16.9,165.6,16.9z"/>
	<path class="st0" d="M188.6,20.6c0-1.3-1.3-3.8-2.8-4.8c-1.2-0.8-2.8-1.1-4.3-1.1c-2.5,0-5.4,1.9-6.9,3.6h-0.1l-0.3-3
		c0-0.4-0.2-0.6-0.4-0.6c-0.2,0-0.5,0.1-0.9,0.4l-4.3,2.4c-0.3,0.1-0.5,0.3-0.5,0.5v0.3c0,0.1,0.1,0.3,0.4,0.5l0.4,0.2
		c1.3,0.6,2,1.5,2,3v7.4h3.6v-6.7c0-1,0.1-2.3,1.1-3.4c1.5-1.6,3.3-1.9,4.1-1.9c1.3,0,2.5,0,3.6,0.9c1.5,1,1.5,2.5,1.5,4.5v6.6
		c0,0,0,0,0,0.1h3.6V20.6z"/>
</g>
</svg>
